<?xml version="1.0" encoding="iso-8859-1"?>
<!-- Generator: Adobe Illustrator 18.0.0, SVG Export Plug-In . SVG Version: 6.00 Build 0)  -->
<!DOCTYPE svg PUBLIC "-//W3C//DTD SVG 1.1//EN" "http://www.w3.org/Graphics/SVG/1.1/DTD/svg11.dtd">
<svg version="1.1" id="Layer_1" xmlns="http://www.w3.org/2000/svg" xmlns:xlink="http://www.w3.org/1999/xlink" x="0px" y="0px"
	 viewBox="0 0 24 24" style="enable-background:new 0 0 24 24;" xml:space="preserve">
<g id="Filled_Icon" style="display:none;">
	<g style="display:inline;">
		<circle cx="4" cy="10" r="1"/>
		<path d="M14.5,8c-2.757,0-5,2.243-5,5c0,2.757,2.243,5,5,5c2.757,0,5-2.243,5-5C19.5,10.243,17.257,8,14.5,8z M14.5,16.5
			c-1.93,0-3.5-1.57-3.5-3.5c0-1.93,1.57-3.5,3.5-3.5c1.93,0,3.5,1.57,3.5,3.5C18,14.93,16.43,16.5,14.5,16.5z"/>
		<path d="M21.443,6h-1.635l-0.861-1.724l-0.031-0.053C18.391,3.435,17.71,3,17,3h-5c-0.71,0-1.39,0.435-1.9,1.2L8.75,6H6V5.5
			C6,4.701,5.273,4,4.444,4H3.5C2.716,4,2.028,4.701,2.028,5.486L2.013,6.028C0.368,6.207,0,7.295,0,8.223v10.388
			C0,20.13,0.931,21,2.556,21h18.889C23.068,21,24,20.13,24,18.611V8.223C24,7.209,23.557,6,21.443,6z M4,12c-1.103,0-2-0.896-2-2
			c0-1.102,0.897-2,2-2s2,0.898,2,2C6,11.104,5.103,12,4,12z M14.5,19c-3.309,0-6-2.691-6-6c0-3.309,2.691-6,6-6
			c3.309,0,6,2.691,6,6C20.5,16.309,17.809,19,14.5,19z"/>
	</g>
</g>
<g id="Outline_Icons">
	<g>
		<path style="fill:none;stroke:#33ace0;stroke-linejoin:round;stroke-miterlimit:10;" d="M2.5,6.5l0.028-1c0-0.522,0.449-1,0.972-1
			h0.944C5,4.5,5.5,4.978,5.5,5.5v1"/>
		<path style="fill:none;stroke:#33ace0;stroke-linejoin:round;stroke-miterlimit:10;" d="M19.5,6.5l-1-2
			c-0.352-0.526-0.868-1-1.5-1h-5c-0.632,0-1.149,0.474-1.5,1L9,6.5H2.5c-1.5,0-2,0.679-2,1.723v10.388
			C0.5,19.654,1,20.5,2.556,20.5h18.889c1.556,0,2.056-0.846,2.056-1.889V8.223C23.5,7.179,23,6.5,21.443,6.5H19.5z"/>
		<circle style="fill:none;stroke:#33ace0;stroke-linejoin:round;stroke-miterlimit:10;" cx="14.5" cy="13" r="5.5"/>
		<circle style="fill:none;stroke:#33ace0;stroke-linejoin:round;stroke-miterlimit:10;" cx="14.5" cy="13" r="3"/>
		<circle style="fill:none;stroke:#33ace0;stroke-linejoin:round;stroke-miterlimit:10;" cx="4" cy="10" r="1.5"/>
	</g>
</g>
</svg>
