<?xml version="1.0" encoding="utf-8"?>
<!-- Generator: Adobe Illustrator 19.2.0, SVG Export Plug-In . SVG Version: 6.00 Build 0)  -->
<svg version="1.1" id="Layer_1" xmlns="http://www.w3.org/2000/svg" xmlns:xlink="http://www.w3.org/1999/xlink" x="0px" y="0px"
	 viewBox="0 0 129.1 129.1" style="enable-background:new 0 0 129.1 129.1;" xml:space="preserve">
<style type="text/css">
	.st0{fill:#6E767D;}
</style>
<title>info</title>
<path class="st0" d="M64.5,0C28.9,0,0,28.9,0,64.5s28.9,64.5,64.5,64.5s64.5-28.9,64.5-64.5S100.2,0,64.5,0C64.5,0,64.5,0,64.5,0z
	 M76.7,86.6C74.8,90,63.5,103,53.7,101s-5.9-12.4-5.9-12.4l1.6-4.3l0,0l8.9-23.1c0.4-1.1,0.8-2.1,1.1-3c0.8-2.3,0.8-3.8-1.2-3.7
	c-3.5,0.1-6.8,5.6-9.3,8.3s-5,1.5-3.1-1.9s13.2-16.4,23-14.3S74.9,59,74.9,59l-1.6,4.3l0,0l-8.9,23.1c-0.4,1.1-0.8,2.1-1.1,3
	c-0.8,2.3-0.8,3.8,1.2,3.7c3.5-0.1,6.8-5.6,9.3-8.3S78.6,83.3,76.7,86.6z M74.4,43.6c-5.1,0-9.3-4.2-9.3-9.3s4.2-9.3,9.3-9.3
	s9.3,4.2,9.3,9.3C83.7,39.5,79.6,43.6,74.4,43.6L74.4,43.6z"/>
</svg>
