<?xml version="1.0" encoding="utf-8"?>
<!-- Generator: Adobe Illustrator 18.1.1, SVG Export Plug-In . SVG Version: 6.00 Build 0)  -->
<svg version="1.1" id="Layer_1" xmlns="http://www.w3.org/2000/svg" xmlns:xlink="http://www.w3.org/1999/xlink" x="0px" y="0px"
	 viewBox="0 0 291 53" enable-background="new 0 0 291 53" xml:space="preserve">
<path fill="#CCCCCC" d="M28.6,1.1l7.9,15.9l17.6,2.6c0.8,0.1,1.1,1.1,0.6,1.7L41.9,33.7l3,17.5c0.1,0.8-0.7,1.4-1.5,1.1L27.8,44
	L12,52.3c-0.7,0.4-1.6-0.2-1.5-1.1l3.1-18.2L0.9,21.3c-0.6-0.6-0.3-1.6,0.6-1.7L19,17.1l7.9-15.9C27.2,0.4,28.3,0.4,28.6,1.1z"/>
<path fill="#CCCCCC" d="M87.6,1.1l7.9,15.9l17.6,2.6c0.8,0.1,1.1,1.1,0.6,1.7l-12.7,12.4l3,17.5c0.1,0.8-0.7,1.4-1.5,1.1L86.8,44
	L71,52.3c-0.7,0.4-1.6-0.2-1.5-1.1l3.1-18.2L59.9,21.3c-0.6-0.6-0.3-1.6,0.6-1.7L78,17.1l7.9-15.9C86.2,0.4,87.3,0.4,87.6,1.1z"/>
<path fill="#CCCCCC" d="M146.6,1.1l7.9,15.9l17.6,2.6c0.8,0.1,1.1,1.1,0.6,1.7l-12.7,12.4l3,17.5c0.1,0.8-0.7,1.4-1.5,1.1L145.8,44
	L130,52.3c-0.7,0.4-1.6-0.2-1.5-1.1l3.1-18.2l-12.8-11.7c-0.6-0.6-0.3-1.6,0.6-1.7l17.6-2.6l7.9-15.9C145.2,0.4,146.3,0.4,146.6,1.1
	z"/>
<path fill="#CCCCCC" d="M205.6,1.1l7.9,15.9l17.6,2.6c0.8,0.1,1.1,1.1,0.6,1.7l-12.7,12.4l3,17.5c0.1,0.8-0.7,1.4-1.5,1.1L204.8,44
	L189,52.3c-0.7,0.4-1.6-0.2-1.5-1.1l3.1-18.2l-12.8-11.7c-0.6-0.6-0.3-1.6,0.6-1.7l17.6-2.6l7.9-15.9C204.2,0.4,205.3,0.4,205.6,1.1
	z"/>
<path fill="#CCCCCC" d="M264.1,1.1l7.9,15.9l17.6,2.6c0.8,0.1,1.1,1.1,0.6,1.7l-12.7,12.4l3,17.5c0.1,0.8-0.7,1.4-1.5,1.1L263.2,44
	l-15.7,8.3c-0.7,0.4-1.6-0.2-1.5-1.1l3.1-18.2l-12.8-11.7c-0.6-0.6-0.3-1.6,0.6-1.7l17.6-2.6l7.9-15.9
	C262.7,0.4,263.8,0.4,264.1,1.1z"/>
</svg>
