<?xml version="1.0" encoding="utf-8"?>
<!-- Generator: Adobe Illustrator 19.1.0, SVG Export Plug-In . SVG Version: 6.00 Build 0)  -->
<svg version="1.1" id="Layer_1" xmlns="http://www.w3.org/2000/svg" xmlns:xlink="http://www.w3.org/1999/xlink" x="0px" y="0px"
	 viewBox="-13 1 36 36" style="enable-background:new -13 1 36 36;" xml:space="preserve">
<style type="text/css">
	.st0{fill:#FFFFFF;}
</style>
<g>
	<path id="Shape_6" class="st0" d="M-0.8,18.9v3.5h5.9c-0.3,1.5-1.8,4.4-5.9,4.4c-3.5,0-6.3-3-6.3-6.5s3-6.5,6.3-6.5
		c2.1,0,3.4,0.9,4.1,1.6l2.8-2.7C4.3,11,2,10-0.8,10c-5.8,0-10.3,4.6-10.3,10.3s4.6,10.3,10.3,10.3c5.9,0,9.9-4.1,9.9-10
		c0-0.7-0.1-1.2-0.1-1.8H-0.8L-0.8,18.9z"/>
	<path id="Shape_2_" class="st0" d="M21.3,18.9h-3v-3h-3v3h-3v3h3v3h3v-3h3"/>
</g>
</svg>
