<?xml version="1.0" encoding="utf-8"?>
<!-- Generator: Adobe Illustrator 19.1.0, SVG Export Plug-In . SVG Version: 6.00 Build 0)  -->
<svg version="1.1" id="Layer_1" xmlns="http://www.w3.org/2000/svg" xmlns:xlink="http://www.w3.org/1999/xlink" x="0px" y="0px"
	 viewBox="0 0 36 36" style="enable-background:new 0 0 36 36;" xml:space="preserve">
<style type="text/css">
	.st0{fill:#FFFFFF;}
</style>
<g>
	<path class="st0" d="M21.2,16.6c2.8,2.2,5.7,6.3,5.7,9.1c0,3.3-1.1,6.4-9.1,6.4s-9.1-3.1-9.1-6.4c0-2.9,2.9-6.9,5.7-9.1H21.2
		 M21.5,14.9H14c-0.1,0-0.3,0-0.4,0.1c-3.3,2.4-6.7,7.1-6.7,10.7c0,5.6,3.5,8.2,10.9,8.2s10.9-2.6,10.9-8.2c0-3.6-3.4-8.3-6.7-10.7
		C21.8,14.9,21.7,14.9,21.5,14.9L21.5,14.9z"/>
</g>
<g>
	<path class="st0" d="M17.7,4.8l0.1,0.3l0.7,1.7l1.6-0.7l1.2-0.5c-0.5,1.1-1,2.3-1.2,3.5h-4.9c-0.2-1.2-0.7-2.4-1.2-3.5l1.2,0.5
		L17,6.8l0.7-1.7L17.7,4.8 M17.7,1.3c-0.3,0-0.5,0.2-0.6,0.4L16,4.5l-4.1-1.8c-0.1,0-0.2-0.1-0.3-0.1c-0.2,0-0.4,0.1-0.5,0.2
		c-0.2,0.2-0.2,0.6,0,0.8c0,0,2.6,3.9,2.6,6.4c0,0.4,0.3,0.7,0.7,0.7h6.8c0.4,0,0.7-0.3,0.7-0.7c0-2.5,2.6-6.4,2.6-6.4
		c0.2-0.3,0.1-0.6,0-0.8c-0.1-0.2-0.3-0.2-0.5-0.2c-0.1,0-0.2,0-0.3,0.1l-4.1,1.8l-1.1-2.7C18.3,1.4,18,1.3,17.7,1.3L17.7,1.3z"/>
</g>
<g>
	<path class="st0" d="M22.5,13.7H13c-0.5,0-0.9-0.4-0.9-0.9S12.5,12,13,12h9.5c0.5,0,0.9,0.4,0.9,0.9S23,13.7,22.5,13.7z"/>
</g>
<g>
	<g>
		<path class="st0" d="M14.1,27.8l0.7-0.2V25h-0.5c-0.4,0-0.8-0.3-0.8-0.8c0-0.4,0.3-0.8,0.8-0.8h0.5v-1.3c0-1.1,0.3-1.9,0.9-2.5
			c0.6-0.6,1.4-0.9,2.4-0.9c1.3,0,2.2,0.5,2.8,1.2c0.2,0.2,0.3,0.4,0.3,0.6c0,0.5-0.4,0.9-0.9,0.9c-0.3,0-0.5-0.1-0.6-0.3
			c-0.4-0.5-0.9-0.8-1.5-0.8c-0.5,0-0.8,0.1-1.1,0.4c-0.3,0.3-0.5,0.8-0.5,1.4v1.3h2.9c0.4,0,0.8,0.3,0.8,0.8c0,0.4-0.3,0.8-0.8,0.8
			h-2.9v2.5h4c0.4,0,0.8,0.3,0.8,0.8S21,29,20.6,29h-6.3c-0.4,0-0.7-0.3-0.7-0.6C13.6,28.1,13.7,27.9,14.1,27.8z"/>
	</g>
</g>
</svg>
