<?xml version="1.0" encoding="utf-8"?>
<!-- Generator: Adobe Illustrator 19.2.0, SVG Export Plug-In . SVG Version: 6.00 Build 0)  -->
<svg version="1.1" id="Layer_1" xmlns="http://www.w3.org/2000/svg" xmlns:xlink="http://www.w3.org/1999/xlink" x="0px" y="0px"
	 viewBox="0 0 24 24" style="enable-background:new 0 0 24 24;" xml:space="preserve">
<style type="text/css">
	.st0{display:none;}
	.st1{display:inline;}
	.st2{fill:none;stroke:#B1BBC3;stroke-linecap:round;stroke-linejoin:round;stroke-miterlimit:10;}
</style>
<g id="Filled_Icons" class="st0">
	<path class="st1" d="M12.1,0C8.1,0,4.8,3.3,4.8,7.3c0,3.9,6.7,14,6.9,14.4c0.1,0.1,0.2,0.2,0.4,0.2s0.3-0.1,0.4-0.2
		c0.3-0.4,6.9-10.6,6.9-14.4C19.5,3.3,16.2,0,12.1,0z M12,11c-2.2,0-4-1.8-4-4s1.8-4,4-4s4,1.8,4,4S14.2,11,12,11z"/>
	<path class="st1" d="M15.3,19.1c-1,1.7-1.8,2.9-2,3.3C13,22.8,12.5,23,12,23s-1-0.3-1.3-0.7c-0.2-0.4-1-1.6-2-3.3
		C6.8,19.2,0,19.6,0,21.5C0,23.8,9.7,24,12,24c2.3,0,12-0.2,12-2.5C24,19.6,17.2,19.2,15.3,19.1z"/>
</g>
<g id="Outline_Icons">
	<g>
		<circle class="st2" cx="12" cy="7" r="3.5"/>
		<path class="st2" d="M18.9,7.4c0,3.8-6.9,14.2-6.9,14.2S5.1,11.1,5.1,7.4c0-3.8,3.1-6.9,6.9-6.9C15.8,0.5,18.9,3.6,18.9,7.4z"/>
		<path class="st2" d="M17,19.7c3.8,0.3,6.5,1,6.5,1.8c0,1.1-5.1,2-11.5,2c-6.4,0-11.5-0.9-11.5-2c0-0.8,2.6-1.5,6.5-1.8"/>
	</g>
</g>
</svg>
