<?xml version="1.0" encoding="iso-8859-1"?>
<!-- Generator: Adobe Illustrator 18.0.0, SVG Export Plug-In . SVG Version: 6.00 Build 0)  -->
<!DOCTYPE svg PUBLIC "-//W3C//DTD SVG 1.1//EN" "http://www.w3.org/Graphics/SVG/1.1/DTD/svg11.dtd">
<svg version="1.1" id="Layer_1" xmlns="http://www.w3.org/2000/svg" xmlns:xlink="http://www.w3.org/1999/xlink" x="0px" y="0px"
	 viewBox="0 0 24 24" style="enable-background:new 0 0 24 24;" xml:space="preserve">
<g id="Filled_Icons" style="display:none;">
	<path style="display:inline;" d="M12,0C5.383,0,0,5.383,0,12c0,6.617,5.383,12,12,12c6.617,0,12-5.383,12-12
		C24,5.383,18.617,0,12,0z M18.353,18.354c-0.194,0.195-0.512,0.195-0.707,0l-4.638-4.637C12.711,13.893,12.37,14,12,14
		c-1.103,0-2-0.896-2-2c0-0.737,0.405-1.375,1-1.722V6.5C11,6.224,11.224,6,11.5,6C11.776,6,12,6.224,12,6.5V10c1.103,0,2,0.896,2,2
		c0,0.37-0.107,0.713-0.284,1.012l4.638,4.635C18.549,17.842,18.549,18.159,18.353,18.354z"/>
</g>
<g id="Outline_Icons">
	<g>
		
			<circle style="fill:none;stroke:#000000;stroke-linecap:round;stroke-linejoin:round;stroke-miterlimit:10;" cx="12" cy="12" r="11.5"/>
		
			<line style="fill:none;stroke:#000000;stroke-linecap:round;stroke-linejoin:round;stroke-miterlimit:10;" x1="18" y1="18" x2="13.057" y2="13.059"/>
		
			<circle style="fill:none;stroke:#000000;stroke-linecap:round;stroke-linejoin:round;stroke-miterlimit:10;" cx="12" cy="12" r="1.5"/>
		
			<line style="fill:none;stroke:#000000;stroke-linecap:round;stroke-linejoin:round;stroke-miterlimit:10;" x1="11.5" y1="6.5" x2="11.5" y2="10.583"/>
	</g>
</g>
</svg>
