<?xml version="1.0" encoding="iso-8859-1"?>
<!-- Generator: Adobe Illustrator 18.0.0, SVG Export Plug-In . SVG Version: 6.00 Build 0)  -->
<!DOCTYPE svg PUBLIC "-//W3C//DTD SVG 1.1//EN" "http://www.w3.org/Graphics/SVG/1.1/DTD/svg11.dtd">
<svg version="1.1" id="Layer_1" xmlns="http://www.w3.org/2000/svg" xmlns:xlink="http://www.w3.org/1999/xlink" x="0px" y="0px"
	 viewBox="0 0 24 24" style="enable-background:new 0 0 24 24;" xml:space="preserve">
<g id="Filled_Icons" style="display:none;">
	<g style="display:inline;">
		<rect x="12.5" y="16" width="4.5" height="3"/>
		<rect x="7" y="16" width="4.5" height="3"/>
		<rect x="12.5" y="12" width="4.5" height="3"/>
		<rect x="7" y="12" width="4.5" height="3"/>
		<path d="M0,23.5C0,23.775,0.224,24,0.5,24h23c0.275,0,0.5-0.225,0.5-0.5V8H0V23.5z M2.5,16C2.224,16,2,15.775,2,15.5
			C2,15.225,2.224,15,2.5,15H6v-3H2.5C2.224,12,2,11.776,2,11.5C2,11.224,2.224,11,2.5,11H6V9.5C6,9.224,6.224,9,6.5,9
			C6.776,9,7,9.224,7,9.5V11h4.5V9.5C11.5,9.224,11.724,9,12,9c0.276,0,0.5,0.224,0.5,0.5V11H17V9.5C17,9.224,17.225,9,17.5,9
			C17.775,9,18,9.224,18,9.5V11h3.5c0.275,0,0.5,0.224,0.5,0.5c0,0.276-0.225,0.5-0.5,0.5H18v3h3.5c0.275,0,0.5,0.225,0.5,0.5
			c0,0.275-0.225,0.5-0.5,0.5H18v3h3.5c0.275,0,0.5,0.225,0.5,0.5c0,0.275-0.225,0.5-0.5,0.5H18v1.5c0,0.275-0.225,0.5-0.5,0.5
			c-0.275,0-0.5-0.225-0.5-0.5V20h-4.5v1.5c0,0.275-0.224,0.5-0.5,0.5c-0.276,0-0.5-0.225-0.5-0.5V20H7v1.5
			C7,21.775,6.776,22,6.5,22C6.224,22,6,21.775,6,21.5V20H2.5C2.224,20,2,19.775,2,19.5C2,19.225,2.224,19,2.5,19H6v-3H2.5z"/>
		<path d="M23.5,2H20V0.5C20,0.224,19.775,0,19.5,0h-3C16.225,0,16,0.224,16,0.5V2H8V0.5C8,0.224,7.776,0,7.5,0h-3
			C4.224,0,4,0.224,4,0.5V2H0.5C0.224,2,0,2.224,0,2.5V7h24V2.5C24,2.224,23.775,2,23.5,2z M7,4H5V1h2V4z M19,4h-2V1h2V4z"/>
	</g>
</g>
<g id="Outline_Icons">
	<g>
		<polyline style="fill:none;stroke:#000000;stroke-linecap:round;stroke-linejoin:round;stroke-miterlimit:10;" points="4.5,2.5 
			0.5,2.5 0.5,23.5 23.5,23.5 23.5,2.5 19.5,2.5 		"/>
		
			<rect x="4.5" y="0.5" style="fill:none;stroke:#000000;stroke-linecap:round;stroke-linejoin:round;stroke-miterlimit:10;" width="3" height="4"/>
		
			<rect x="16.5" y="0.5" style="fill:none;stroke:#000000;stroke-linecap:round;stroke-linejoin:round;stroke-miterlimit:10;" width="3" height="4"/>
		
			<line style="fill:none;stroke:#000000;stroke-linecap:round;stroke-linejoin:round;stroke-miterlimit:10;" x1="7.5" y1="2.5" x2="16.5" y2="2.5"/>
		
			<line style="fill:none;stroke:#000000;stroke-linecap:round;stroke-linejoin:round;stroke-miterlimit:10;" x1="0.5" y1="7.5" x2="23.5" y2="7.5"/>
		
			<line style="fill:none;stroke:#000000;stroke-linecap:round;stroke-linejoin:round;stroke-miterlimit:10;" x1="6.5" y1="9.5" x2="6.5" y2="21.5"/>
		
			<line style="fill:none;stroke:#000000;stroke-linecap:round;stroke-linejoin:round;stroke-miterlimit:10;" x1="11.5" y1="9.5" x2="11.5" y2="21.5"/>
		
			<line style="fill:none;stroke:#000000;stroke-linecap:round;stroke-linejoin:round;stroke-miterlimit:10;" x1="16.5" y1="9.5" x2="16.5" y2="21.5"/>
		
			<line style="fill:none;stroke:#000000;stroke-linecap:round;stroke-linejoin:round;stroke-miterlimit:10;" x1="2.5" y1="11.5" x2="21.5" y2="11.5"/>
		
			<line style="fill:none;stroke:#000000;stroke-linecap:round;stroke-linejoin:round;stroke-miterlimit:10;" x1="2.5" y1="15.5" x2="21.5" y2="15.5"/>
		
			<line style="fill:none;stroke:#000000;stroke-linecap:round;stroke-linejoin:round;stroke-miterlimit:10;" x1="2.5" y1="19.5" x2="21.5" y2="19.5"/>
	</g>
</g>
</svg>
