<?xml version="1.0" encoding="iso-8859-1"?>
<!-- Generator: Adobe Illustrator 18.0.0, SVG Export Plug-In . SVG Version: 6.00 Build 0)  -->
<!DOCTYPE svg PUBLIC "-//W3C//DTD SVG 1.1//EN" "http://www.w3.org/Graphics/SVG/1.1/DTD/svg11.dtd">
<svg version="1.1" id="Layer_1" xmlns="http://www.w3.org/2000/svg" xmlns:xlink="http://www.w3.org/1999/xlink" x="0px" y="0px"
	 viewBox="0 0 24 24" style="enable-background:new 0 0 24 24;" xml:space="preserve">
<g id="Filled_Icons" style="display:none;">
	<g style="display:inline;">
		<path d="M9,18c2.131,0,4.089-0.749,5.633-1.992l7.658,7.697c0.389,0.393,1.021,0.395,1.414,0.003
			c0.393-0.39,0.393-1.022,0.004-1.414l-7.668-7.707C17.264,13.053,18,11.111,18,9c0-4.963-4.037-9-9-9C4.037,0,0,4.037,0,9
			C0,13.962,4.037,18,9,18z M9,2c3.859,0,7,3.14,7,7c0,3.859-3.141,7-7,7c-3.86,0-7-3.141-7-7C2,5.14,5.14,2,9,2z"/>
	</g>
</g>
<g id="Outline_Icons">
	<g>
		<circle style="fill:none;stroke:#ffffff;stroke-linejoin:round;stroke-miterlimit:10;" cx="8.5" cy="8.5" r="8"/>
		
			<line style="fill:none;stroke:#ffffff;stroke-linecap:round;stroke-linejoin:round;stroke-miterlimit:10;" x1="14.156" y1="14.156" x2="23.5" y2="23.5"/>
	</g>
</g>
</svg>
