<?xml version="1.0" encoding="utf-8"?>
<!-- Generator: Adobe Illustrator 19.1.0, SVG Export Plug-In . SVG Version: 6.00 Build 0)  -->
<svg version="1.1" id="Layer_1" xmlns="http://www.w3.org/2000/svg" xmlns:xlink="http://www.w3.org/1999/xlink" x="0px" y="0px"
	 viewBox="-89 91 120 120" style="enable-background:new -89 91 120 120;" xml:space="preserve">
<style type="text/css">
	.st0{display:none;fill:none;stroke:#000000;stroke-width:0.2;stroke-miterlimit:10;}
	.st1{display:none;}
	.st2{display:inline;fill:none;stroke:#B1BBC3;stroke-width:3;stroke-linecap:round;stroke-linejoin:round;stroke-miterlimit:10;}
	.st3{fill:none;stroke:#FFFFFF;stroke-width:3;stroke-linecap:round;stroke-linejoin:round;stroke-miterlimit:10;}
</style>
<path id="XMLID_1_" class="st0" d="M9,201h-76c-6.6,0-12-5.4-12-12v-76c0-6.6,5.4-12,12-12H9c6.6,0,12,5.4,12,12v76
	C21,195.6,15.6,201,9,201z"/>
<g id="XMLID_21_" class="st1">
	<path id="XMLID_19_" class="st2" d="M-39.5,162.8l-25.4,7c-6.3,2.3-10.4,8.3-10.4,15v10h92.1v-10c0-6.7-4.1-12.7-10.4-15l-25.3-7"
		/>
	<path id="XMLID_18_" class="st2" d="M-41.2,138.8c0-2.2,1.8-2,4-2s4-0.2,4,2"/>
	<path id="XMLID_17_" class="st2" d="M-25.2,138.8c0-2.2,1.8-2,4-2c2.2,0,4-0.2,4,2"/>
	<path id="XMLID_16_" class="st2" d="M-49.2,127.4v7.4c-6,0-6,12,0,12c0,12,14,20.1,20,20.1"/>
	<path id="XMLID_15_" class="st2" d="M-9.2,127.4v7.4c6,0,6,12,0,12c0,12-14,20.1-20,20.1"/>
	<polygon id="XMLID_14_" class="st2" points="-11.2,174.8 0.9,174.8 0.9,182.9 -5.2,186.9 -11.2,182.9 	"/>
	<polygon id="XMLID_13_" class="st2" points="-31.2,108.8 -27.2,108.8 -27.2,112.8 -29.2,114.8 -31.2,112.8 	"/>
	<path id="XMLID_12_" class="st2" d="M-29.2,130.8c-24,0-24-8-24-8h48.1C-5.2,122.8-5.2,130.8-29.2,130.8z"/>
	<path id="XMLID_11_" class="st2" d="M-1.2,122.8h-56c0,0,0-6,0-10c14,0,14-10,28-10s16,10,28,10C-1.1,116.8-1.2,122.8-1.2,122.8z"
		/>
	<line id="XMLID_10_" class="st2" x1="-35.2" y1="165.3" x2="-35.2" y2="194.9"/>
	<line id="XMLID_8_" class="st2" x1="-23.2" y1="165.2" x2="-23.2" y2="194.9"/>
</g>
<g>
	<path class="st3" d="M-47.6,142.8c3.2-3.2,3.2-8.5,0-11.7l-8.8-8.8c-3.2-3.2-8.5-3.2-11.7,0l-4.8,4.8c-4.2,4.2-4.8,10.7-1.6,15.6
		c14,21.1,32.6,39.7,53.7,53.7c4.9,3.2,11.4,2.6,15.6-1.6l4.8-4.8c3.2-3.2,3.2-8.5,0-11.7l-8.8-8.8c-3.2-3.2-8.5-3.2-11.7,0
		l-2.9,2.9c-9.6-7.9-19-17.2-26.8-26.8L-47.6,142.8z"/>
	<path class="st3" d="M-29,103.5c26.2,0,47.5,21.3,47.5,47.5"/>
	<path class="st3" d="M-29,120c17.1,0,31,13.9,31,31"/>
	<path class="st3" d="M-29,136.5c8,0,14.5,6.5,14.5,14.5"/>
</g>
</svg>
