<?xml version="1.0" encoding="utf-8"?>
<!-- Generator: Adobe Illustrator 19.2.0, SVG Export Plug-In . SVG Version: 6.00 Build 0)  -->
<svg version="1.1" id="Layer_1" xmlns="http://www.w3.org/2000/svg" xmlns:xlink="http://www.w3.org/1999/xlink" x="0px" y="0px"
	 viewBox="0 0 24 24" style="enable-background:new 0 0 24 24;" xml:space="preserve">
<style type="text/css">
	.st0{display:none;}
	.st1{display:inline;}
	.st2{fill:none;stroke:#B1BBC3;stroke-linecap:round;stroke-linejoin:round;stroke-miterlimit:10;}
</style>
<g id="Filled_Icon" class="st0">
	<g class="st1">
		<path d="M17,17H7c-0.2,0-0.5-0.3-0.5-0.9c-0.6,0.5-1.2,0.9-2,0.9C4.2,17,4,16.8,4,16.5S4.2,16,4.5,16c1.4,0,2.7-2.3,3-3.2
			c0.1-0.2,0.3-0.3,0.5-0.3h1.5c1.8,0,2.5-1.3,2.5-2V10c0-0.7-0.7-2-2.5-2h-3H5v0.2c-2,0.4-5,1.9-5,7v3.3c0,3,2.5,5.5,5.5,5.5H13
			c1.1,0,2-0.9,2-2c0-0.4-0.1-0.7-0.3-1H17c1.1,0,2-0.9,2-2C19,17.9,18.1,17,17,17z"/>
		<path d="M13,7h11V5c0-1.1-0.9-2-2-2H7C5.9,3,5,3.9,5,5v2h4.5c2.3,0,3.5,1.7,3.5,3v0.5c0,1.3-1.2,3-3.5,3H8.3
			C8.1,14,7.5,15.1,6.6,16c0.1,0,0.2,0,0.4,0h15c1.1,0,2-0.9,2-2V8H13c-0.3,0-0.5-0.2-0.5-0.5C12.5,7.2,12.7,7,13,7z M18.5,9h3
			C21.8,9,22,9.2,22,9.5c0,0.3-0.2,0.5-0.5,0.5h-3C18.2,10,18,9.8,18,9.5C18,9.2,18.2,9,18.5,9z"/>
	</g>
</g>
<g id="Outline_Icons">
	<g>
		<path class="st2" d="M13,21.5H5.5c-2.8,0-5-2.2-5-5v-3.3c0-5.7,4-6.7,6-6.7c1,0,2.4,0,3,0c1,0,2,0.5,2,1.5v0.5c0,1-1,1.5-2,1.5h-2
			c0,0-1,3.5-3,3.5"/>
		<path class="st2" d="M10.5,15.5H17c0.8,0,1.5,0.7,1.5,1.5c0,0.8-0.7,1.5-1.5,1.5h-4"/>
		<path class="st2" d="M10.5,18.5H13c0.8,0,1.5,0.7,1.5,1.5c0,0.8-0.7,1.5-1.5,1.5h-1.5"/>
		<line class="st2" x1="23.5" y1="7.5" x2="11.4" y2="7.5"/>
		<path class="st2" d="M5.5,6.5V5c0-0.8,0.7-1.5,1.5-1.5h15c0.8,0,1.5,0.7,1.5,1.5v9c0,0.8-0.7,1.5-1.5,1.5H7
			c-0.8,0-1.5-0.7-1.5-1.5v-0.8"/>
		<line class="st2" x1="21.5" y1="9.5" x2="18.5" y2="9.5"/>
	</g>
</g>
</svg>
