<svg id="Layer_1" data-name="Layer 1" xmlns="http://www.w3.org/2000/svg" viewBox="0 0 24 17"><defs><style>.cls-1{fill:none;stroke:#b1bbc3;stroke-linecap:round;stroke-linejoin:round;}</style></defs><title>jp-rates</title><g id="Outline_Icons" data-name="Outline Icons"><circle class="cls-1" cx="12" cy="12" r="1.5"/><line class="cls-1" x1="13.06" y1="10.94" x2="18.01" y2="5.99"/><line class="cls-1" x1="2.5" y1="12.5" x2="4.5" y2="12.5"/><line class="cls-1" x1="21.5" y1="12.5" x2="19.5" y2="12.5"/><line class="cls-1" x1="20.77" y1="8.36" x2="18.93" y2="9.13"/><line class="cls-1" x1="15.64" y1="3.22" x2="14.87" y2="5.07"/><line class="cls-1" x1="12" y1="2.5" x2="12" y2="4.5"/><line class="cls-1" x1="8.36" y1="3.22" x2="9.13" y2="5.07"/><line class="cls-1" x1="5.28" y1="5.28" x2="6.7" y2="6.7"/><line class="cls-1" x1="3.22" y1="8.36" x2="5.07" y2="9.13"/><path class="cls-1" d="M12,4.5A11.5,11.5,0,0,0,.5,16v4.5h23V16A11.5,11.5,0,0,0,12,4.5Z" transform="translate(0 -4)"/></g></svg>