<?xml version="1.0" encoding="utf-8"?>
<!-- Generator: Adobe Illustrator 19.0.0, SVG Export Plug-In . SVG Version: 6.00 Build 0)  -->
<svg version="1.1" id="Layer_1" xmlns="http://www.w3.org/2000/svg" xmlns:xlink="http://www.w3.org/1999/xlink" x="0px" y="0px"
	 viewBox="0 0 120 120" style="enable-background:new 0 0 120 120;" xml:space="preserve">
<style type="text/css">
	.st0{display:none;fill:none;stroke:#000000;stroke-width:0.2;stroke-miterlimit:10;}
	.st1{fill:none;stroke:#B1BBC3;stroke-width:3;stroke-linecap:round;stroke-linejoin:round;stroke-miterlimit:10;}
	.st2{display:none;}
	.st3{display:inline;fill:none;stroke:#B1BBC3;stroke-width:3;stroke-linecap:round;stroke-linejoin:round;stroke-miterlimit:10;}
</style>
<path id="XMLID_1_" class="st0" d="M98,110H22c-6.6,0-12-5.4-12-12V22c0-6.6,5.4-12,12-12h76c6.6,0,12,5.4,12,12v76
	C110,104.6,104.6,110,98,110z"/>
<g id="XMLID_9_">
	<path id="XMLID_7_" class="st1" d="M100.1,68.4c0,22.1-17.9,40.1-40.1,40.1c-22.1,0-40.1-17.9-40.1-40.1S37.9,28.4,60,28.4
		C82.1,28.4,100.1,46.3,100.1,68.4z"/>
	<line id="XMLID_6_" class="st1" x1="47.4" y1="11.5" x2="72.6" y2="11.5"/>
	<line id="XMLID_5_" class="st1" x1="88.3" y1="40.1" x2="95.8" y2="32.6"/>
	<polyline id="XMLID_4_" class="st1" points="53.7,28.6 53.7,11.5 66.3,11.5 66.3,28.6 	"/>
	<line id="XMLID_3_" class="st1" x1="93.7" y1="30.5" x2="97.9" y2="34.7"/>
	<line id="XMLID_2_" class="st1" x1="60" y1="68.4" x2="41" y2="49.5"/>
</g>
<g id="XMLID_21_" class="st2">
	<path id="XMLID_19_" class="st3" d="M49.5,71.8l-25.4,7c-6.3,2.3-10.4,8.3-10.4,15v10h92.1v-10c0-6.7-4.1-12.7-10.4-15l-25.3-7"/>
	<path id="XMLID_18_" class="st3" d="M47.8,47.8c0-2.2,1.8-2,4-2c2.2,0,4-0.2,4,2"/>
	<path id="XMLID_17_" class="st3" d="M63.8,47.8c0-2.2,1.8-2,4-2c2.2,0,4-0.2,4,2"/>
	<path id="XMLID_16_" class="st3" d="M39.8,36.4v7.4c-6,0-6,12,0,12c0,12,14,20.1,20,20.1"/>
	<path id="XMLID_15_" class="st3" d="M79.8,36.4v7.4c6,0,6,12,0,12c0,12-14,20.1-20,20.1"/>
	<polygon id="XMLID_14_" class="st3" points="77.8,83.8 89.9,83.8 89.9,91.9 83.8,95.9 77.8,91.9 	"/>
	<polygon id="XMLID_13_" class="st3" points="57.8,17.8 61.8,17.8 61.8,21.8 59.8,23.8 57.8,21.8 	"/>
	<path id="XMLID_12_" class="st3" d="M59.8,39.8c-24,0-24-8-24-8h48.1C83.8,31.8,83.8,39.8,59.8,39.8z"/>
	<path id="XMLID_11_" class="st3" d="M87.8,31.8H31.8c0,0,0-6,0-10c14,0,14-10,28-10s16,10,28,10C87.9,25.8,87.8,31.8,87.8,31.8z"/>
	<line id="XMLID_10_" class="st3" x1="53.8" y1="74.3" x2="53.8" y2="103.9"/>
	<line id="XMLID_8_" class="st3" x1="65.8" y1="74.2" x2="65.8" y2="103.9"/>
</g>
</svg>
