<?xml version="1.0" encoding="utf-8"?>
<!-- Generator: Adobe Illustrator 19.0.0, SVG Export Plug-In . SVG Version: 6.00 Build 0)  -->
<svg version="1.1" id="Layer_1" xmlns="http://www.w3.org/2000/svg" xmlns:xlink="http://www.w3.org/1999/xlink" x="0px" y="0px"
	 viewBox="0 0 120 120" style="enable-background:new 0 0 120 120;" xml:space="preserve">
<style type="text/css">
	.st0{display:none;fill:none;stroke:#000000;stroke-width:0.2;stroke-miterlimit:10;}
	.st1{display:none;}
	.st2{display:inline;fill:none;stroke:#B1BBC3;stroke-width:3;stroke-linecap:round;stroke-linejoin:round;stroke-miterlimit:10;}
	.st3{display:inline;fill:none;stroke:#B1BBC3;stroke-width:3;stroke-linejoin:round;stroke-miterlimit:10;}
	.st4{display:inline;}
	.st5{fill:#B1BBC3;}
</style>
<path id="XMLID_1_" class="st0" d="M98,110H22c-6.6,0-12-5.4-12-12V22c0-6.6,5.4-12,12-12h76c6.6,0,12,5.4,12,12v76
	C110,104.6,104.6,110,98,110z"/>
<g id="XMLID_9_" class="st1">
	<path id="XMLID_7_" class="st2" d="M100.1,68.4c0,22.1-17.9,40.1-40.1,40.1c-22.1,0-40.1-17.9-40.1-40.1S37.9,28.4,60,28.4
		C82.1,28.4,100.1,46.3,100.1,68.4z"/>
	<line id="XMLID_6_" class="st2" x1="47.4" y1="11.5" x2="72.6" y2="11.5"/>
	<line id="XMLID_5_" class="st2" x1="88.3" y1="40.1" x2="95.8" y2="32.6"/>
	<polyline id="XMLID_4_" class="st2" points="53.7,28.6 53.7,11.5 66.3,11.5 66.3,28.6 	"/>
	<line id="XMLID_3_" class="st2" x1="93.7" y1="30.5" x2="97.9" y2="34.7"/>
	<line id="XMLID_2_" class="st2" x1="60" y1="68.4" x2="41" y2="49.5"/>
</g>
<g id="XMLID_21_" class="st1">
	<path id="XMLID_19_" class="st2" d="M49.5,71.8l-25.4,7c-6.3,2.3-10.4,8.3-10.4,15v10h92.1v-10c0-6.7-4.1-12.7-10.4-15l-25.3-7"/>
	<path id="XMLID_18_" class="st2" d="M47.8,47.8c0-2.2,1.8-2,4-2c2.2,0,4-0.2,4,2"/>
	<path id="XMLID_17_" class="st2" d="M63.8,47.8c0-2.2,1.8-2,4-2c2.2,0,4-0.2,4,2"/>
	<path id="XMLID_16_" class="st2" d="M39.8,36.4v7.4c-6,0-6,12,0,12c0,12,14,20.1,20,20.1"/>
	<path id="XMLID_15_" class="st2" d="M79.8,36.4v7.4c6,0,6,12,0,12c0,12-14,20.1-20,20.1"/>
	<polygon id="XMLID_14_" class="st2" points="77.8,83.8 89.9,83.8 89.9,91.9 83.8,95.9 77.8,91.9 	"/>
	<polygon id="XMLID_13_" class="st2" points="57.8,17.8 61.8,17.8 61.8,21.8 59.8,23.8 57.8,21.8 	"/>
	<path id="XMLID_12_" class="st2" d="M59.8,39.8c-24,0-24-8-24-8h48.1C83.8,31.8,83.8,39.8,59.8,39.8z"/>
	<path id="XMLID_11_" class="st2" d="M87.8,31.8H31.8c0,0,0-6,0-10c14,0,14-10,28-10s16,10,28,10C87.9,25.8,87.8,31.8,87.8,31.8z"/>
	<line id="XMLID_10_" class="st2" x1="53.8" y1="74.3" x2="53.8" y2="103.9"/>
	<line id="XMLID_8_" class="st2" x1="65.8" y1="74.2" x2="65.8" y2="103.9"/>
</g>
<g id="XMLID_26_" class="st1">
	<polyline id="XMLID_24_" class="st3" points="27.3,68.7 11.7,95.8 27.9,93 33.6,108.5 47.4,85.2 	"/>
	<polyline id="XMLID_23_" class="st3" points="92.5,69.1 108,95.8 91.8,93 86.1,108.5 72.3,85.4 	"/>
	<path id="XMLID_22_" class="st3" d="M98.1,49.5c0,21-17,37.9-37.9,37.9c-21,0-37.9-17-37.9-37.9c0-21,17-37.9,37.9-37.9
		C81.1,11.5,98.1,28.5,98.1,49.5z"/>
	<polygon id="XMLID_20_" class="st3" points="60.2,28.4 66.5,41 79.2,41 68.6,51.6 72.8,66.3 60.2,58.4 47.5,66.3 51.8,51.6 
		41.2,41 53.9,41 	"/>
</g>
<g id="XMLID_33_" class="st1">
	<path id="XMLID_31_" class="st2" d="M93.5,74.3L93.5,74.3c3.5,0,6.3,2.8,6.3,6.3c0,3.5-2.8,6.3-6.3,6.3h-4.2c3.5,0,6.3,2.8,6.3,6.3
		c0,3.5-2.8,4.2-6.3,4.2c0,0-16.8,0-27.3,0c-12,0-14.7-2.1-29.4-4.2V57.6C43,57.6,60,38.7,60,21.9c0-6.6,9.2-9.1,12.6,3
		c2.1,7.5-4.2,22.1-4.2,22.1h33.5c3.5,0,6.3,2.8,6.3,6.3c0,3.5-2.8,8.4-6.3,8.4h-4.2c3.5,0,6.3,2.8,6.3,6.3c0,3.5-2.8,6.3-6.3,6.3
		H93.5"/>
	<rect id="XMLID_27_" x="11.8" y="51.3" class="st2" width="21" height="50.3"/>
	<g id="XMLID_34_" class="st4">
		<g id="XMLID_35_">
			<g id="XMLID_25_">
				<path id="XMLID_45_" class="st5" d="M24.4,91.1c-1.2,0-2.1,0.9-2.1,2.1s0.9,2.1,2.1,2.1s2.1-0.9,2.1-2.1S25.5,91.1,24.4,91.1
					L24.4,91.1z"/>
			</g>
		</g>
	</g>
</g>
<path id="XMLID_44_" class="st5" d="M100,102.5H90c-3,0-5-2-5-5v-10h20v10C105,100.5,103,102.5,100,102.5z"/>
<path id="XMLID_42_" class="st5" d="M29.9,102.5h-10c-3,0-5-2-5-5v-10h20v10C34.9,100.5,32.9,102.5,29.9,102.5z"/>
<g id="XMLID_53_">
	<path id="XMLID_54_" class="st5" d="M79.5,27.5c4.5,0,8.5,3,9.5,7.5l5.5,22.5c0,1,0.5,1.5,0.5,2.5v22.5H24.9V60c0-1,0-1.5,0.5-2.5
		L30.9,35c1-4.5,5-7.5,9.5-7.5H79.5 M79.5,17.5h-39c-9,0-17,6-19.5,15L15.4,55c-0.5,1.5-0.5,3.5-0.5,5v32.5H105V60
		c0-1.5,0-3.5-0.5-5L99,32.5C96.5,23.5,88.5,17.5,79.5,17.5L79.5,17.5z"/>
</g>
<path id="XMLID_49_" class="st5" d="M19.9,52.5v35H100v-35H19.9z M32.4,82.5c-4,0-7.5-3.5-7.5-7.5s3.5-7.5,7.5-7.5s7.5,3.5,7.5,7.5
	S36.4,82.5,32.4,82.5z M87.5,82.5c-4,0-7.5-3.5-7.5-7.5s3.5-7.5,7.5-7.5S95,71,95,75S91.5,82.5,87.5,82.5z"/>
<path id="XMLID_36_" class="st5" d="M105,62.5h-5v-15h5c3,0,5,2,5,5v5C110,60.5,108,62.5,105,62.5z"/>
<path id="XMLID_32_" class="st5" d="M14.9,62.5h5v-15h-5c-3,0-5,2-5,5v5C9.9,60.5,11.9,62.5,14.9,62.5z"/>
</svg>
