<?xml version="1.0" encoding="utf-8"?>
<!-- Generator: Adobe Illustrator 18.1.1, SVG Export Plug-In . SVG Version: 6.00 Build 0)  -->
<svg version="1.1" id="Layer_1" xmlns="http://www.w3.org/2000/svg" xmlns:xlink="http://www.w3.org/1999/xlink" x="0px" y="0px"
	 viewBox="0 0 203 43" enable-background="new 0 0 203 43" xml:space="preserve">
<g>
	<g>
		<path fill="#00B303" d="M140.6,35.7c-3.8,0-6.9-3.1-6.9-6.9c0-3.8,3.1-6.9,6.9-6.9c3.8,0,6.9,3.1,6.9,6.9
			C147.5,32.6,144.4,35.7,140.6,35.7 M154.3,15.3C154.3,15.3,154.3,15.3,154.3,15.3c-0.1,0-0.1,0-0.1-0.1c0,0-0.1,0-0.1,0
			c0,0,0,0,0,0c-0.2-0.1-0.4-0.1-0.6-0.1l-3.9,0c-1.2,0-2,1-2,1.9c0,0.1,0,0.1,0,0.2v0v0c0,0.3-0.3,0.6-0.6,0.6
			c-0.2,0-0.3-0.1-0.4-0.2l-0.1-0.1c-1.9-2.3-5.1-2.7-6.3-2.8c0,0-0.3,0-0.3,0c-8.1,0-14.4,6-14.4,14.2c0,8.2,7.1,13.9,14.1,13.9
			c0.7,0,4.8,0,6.9-2.6l0.1-0.1c0.1-0.1,0.3-0.2,0.4-0.2c0.3,0,0.6,0.3,0.6,0.6v0c0,0,0,0.1,0,0.2c0,1,0.8,1.9,2,1.9l3.9,0
			c0.2,0,0.4,0,0.6-0.1c0,0,0,0,0,0c0,0,0.1,0,0.1,0c0,0,0.1,0,0.1,0c0,0,0,0,0,0c0.6-0.3,1.1-0.9,1.2-1.7V17
			C155.4,16.2,154.9,15.6,154.3,15.3"/>
		<path fill="#00B303" d="M173.5,14.9c-0.9,0-4,0-6.4,2.6l-0.1,0.1c-0.1,0.1-0.3,0.2-0.4,0.2c-0.3,0-0.6-0.3-0.6-0.6v0
			c0,0,0-0.1,0-0.2c0-1-0.8-1.9-2-1.9l-3.9,0c-0.2,0-0.4,0-0.6,0.1c0,0,0,0,0,0c0,0-0.2,0.1-0.2,0.1c0,0,0,0,0,0
			c-0.7,0.3-1.1,0.9-1.2,1.7c0,0.1,0,0.2,0,0.2v0.4v22.5c0,0.1,0,0.4,0,0.5c0,1.1,0.9,2,2,2c0.1,0,3.7,0,3.9,0c1.1,0,2-0.9,2-2
			c0,0,0-10.8,0-10.9c0-4.9,4.1-7.4,7-7.4c0.1,0,0.5,0,0.6,0c1,0,1.8-0.7,2-1.7c0-0.1,0-0.3,0-0.4c0,0,0-3.2,0-3.3
			c0-1.1-0.9-2-1.9-2C173.6,14.9,173.5,14.9,173.5,14.9"/>
		<path fill="#00B303" d="M111,0c-8.5,0-15.4,6.7-15.4,15.6c0,0,0,25.5,0,25.5c0,0,0,0,0,0c0,0.4,0.2,0.7,0.4,1
			c0.1,0.1,0.1,0.1,0.2,0.2c0,0,0.1,0,0.1,0.1c0,0,0,0,0,0c0.2,0.2,0.5,0.3,0.8,0.3c0,0,0,0,0,0c0.1,0,0.3,0,0.3,0
			c0.1,0,0.1,0,0.2,0c3.7-0.3,6.5-3.4,6.5-7.1c0,0,0-19.4,0-19.6v-0.5c0-3.8,3.1-6.9,6.9-6.9c3.8,0,6.9,3.1,6.9,6.9l0,0
			c-0.1,1.6-0.8,3.1-1.8,4.2l-0.2,0.2c-1.1,1.1-2.1,1.7-3.5,1.7c-0.2,0-0.3-0.1-0.4-0.2c-0.2-0.2-0.1-0.4-0.1-0.4l0-2
			c0-0.1,0-0.2-0.1-0.3c-0.2-0.2-0.5-0.2-0.7,0l-5.3,5.3c-0.3,0.3-0.4,0.7-0.4,1.1c0,0.4,0.1,0.7,0.4,1l5.2,5.7l0.1,0.1
			c0.1,0.1,0.2,0.1,0.3,0.1c0.3,0,0.5-0.2,0.5-0.5v-2.1c0-0.4,0.4-0.6,0.6-0.6l0.2,0c8.7,0,13.4-5.5,13.7-13.2l0,0
			C126.4,7,119.7,0,111,0"/>
		<path fill="#00B303" d="M197.1,15.2c-2.3,0-4.4,1-5.8,2.8l-4.5,5.8c-0.1,0.1-0.2,0.1-0.3,0.1c-0.3,0-0.5-0.2-0.5-0.5
			c0,0,0-19.5,0-19.6c0-1.1-0.9-2-2-2c-0.1,0-4.6,0-4.6,0c-1.1,0-2,0.9-2,2c0,0,0,36.3,0,36.3c0,0.1,0,0.3,0,0.4c0,1.1,0.9,2,2,2
			c0,0,4.6,0,4.6,0c1.1,0,2-0.9,2-2c0,0,0-0.3,0-0.3l0-7c0-0.3,0.2-0.5,0.5-0.5c0.1,0,0.2,0,0.3,0.1l0.1,0.1l5.3,6.9
			c1.5,1.9,3.5,2.8,5.8,2.8h3.8c1,0,1.5-1.2,1-1.9L194,29.3c-0.2-0.3-0.5-0.8-0.5-1.3c0-0.5,0.3-1,0.5-1.4l7.4-9.6
			c0.5-0.7,0-1.8-0.9-1.8L197.1,15.2z"/>
	</g>
	<path fill="#262626" d="M49.9,29.7c0-0.3,0-0.6,0-0.9V17.4c0-0.1,0-0.3,0-0.3c0-1.1-0.9-2-2-2h-0.3h-3.9h-0.3c-1.1,0-2,0.9-2,2
		c0,0.1,0,0.3,0,0.3v9.4c0,1.5-0.1,3.5-0.3,5c0,0.2,0,0.3-0.1,0.5c0,0,0,0.2,0,0.2c-0.4,2-2.1,3.4-4.2,3.6c-0.1,0-0.1,0-0.2,0
		c-0.1,0-0.1,0-0.2,0c-2.1-0.1-3.7-1.6-4.2-3.6c0-0.1,0-0.2,0-0.2c0-0.2,0-0.3-0.1-0.5c-0.1-1.5-0.3-3.5-0.3-5v-9.4
		c0-0.1,0-0.3,0-0.3c0-1.1-0.9-2-2-2h-0.3h-3.9h-0.3c-1.1,0-2,0.9-2,2c0,0.1,0,0.3,0,0.3v11.3c0,0.3,0,0.6,0,0.9
		c0,2.7-0.1,6.9,2.7,9.7c2.1,2.2,5.2,3.6,10.5,3.6v0c0,0,0,0,0.1,0c0,0,0,0,0.1,0v0c5.3,0,8.4-1.5,10.5-3.6
		C50,36.5,49.9,32.1,49.9,29.7"/>
	<path fill="#262626" d="M73.9,34.4c0.1-0.5,0.1-0.9,0.1-1.4c-0.2-2.6-1.7-5.1-4.2-6.5c-0.2-0.1-0.4-0.2-0.6-0.3
		c-1.1-0.5-2.4-0.8-3.8-1.1c-0.2,0-0.4-0.1-0.6-0.1c-0.9-0.1-2.2-0.3-3-0.9v0c-0.2-0.1-0.3-0.2-0.4-0.4c-0.7-0.8-0.5-2.1,0.3-2.8
		c0.1-0.1,0.2-0.2,0.4-0.2l0,0c0,0,0.1,0,0.1,0c0,0,0,0,0.1,0c0.6-0.2,1.1-0.3,1.1-0.3c2.3-0.1,4,0.4,5.2,0.8
		c0.3,0.1,0.6,0.2,0.9,0.2c1,0,1.4-0.7,1.6-1c0,0,0.5-0.8,1.1-2.1l0.1-0.2c0.4-0.7,0.2-1.3,0.1-1.7c-0.3-0.6-0.8-1-1.2-1.1
		c-2.1-0.6-4.5-1.1-6.8-1.1c-6.3-0.1-11.7,3-11.7,9.1c0,3.8,2.8,6.8,5.9,7.7c1.7,0.5,3.5,0.8,4.3,0.9c0.4,0.1,0.7,0.1,1,0.2
		c0.1,0,0.1,0,0.2,0.1c0.3,0.1,0.7,0.4,0.9,0.7c0.4,0.5,0.5,1,0.5,1.6c0,0.6-0.3,1.3-0.8,1.7c-0.6,0.4-1.5,0.5-1.8,0.6
		c-2.9,0-5.6-0.9-7.6-1.8c-0.2-0.1-0.5-0.2-0.8-0.2c-0.4,0-1.1,0.2-1.4,0.9c-0.4,0.7-0.9,1.7-1.3,2.3c-0.3,0.5-0.3,1.1-0.2,1.6
		c0.2,0.6,0.7,1.1,1.1,1.3c2.6,1.2,5.4,2.2,8.7,2.4c0.3,0,0.8,0,0.8,0c3.4,0.1,6.9-1.2,9.1-3.2C72.7,38.5,73.7,36.6,73.9,34.4"/>
	<path fill="#262626" d="M92.6,20v-2.7c0,0,0-0.1,0-0.1c0-1.1-0.9-2-2-2c0,0-0.1,0-0.2,0c-0.2,0-1.9,0-1.9,0c-0.9,0-1.6-0.7-1.6-1.6
		l0-1.5V9c0-0.1,0-0.3,0-0.4c0-1.1-0.9-2-2-2c-0.1,0-4.5,0-4.6,0c-1.1,0-2,0.9-2,2c0,0.1,0,0.3,0,0.3l0,4.3v0.3
		c0,0.9-0.7,1.6-1.5,1.6l-0.1,0c-0.4,0-0.9,0.1-1.3,0.4c-0.5,0.4-0.8,1-0.8,1.6l0,2.6l0,0.4c0,0.4,0.1,0.9,0.4,1.3
		c0.4,0.5,1,0.7,1.5,0.8l0,0c0.9,0,1.6,0.7,1.6,1.6l0,16.4c0,1.6,0.8,2.4,2.4,2.4h3.9c1.9,0,2.4-1.3,2.4-2.4V25.4l0-1.6
		c0-0.9,0.7-1.6,1.6-1.6l2,0c0.4,0,0.9-0.1,1.3-0.4C92.4,21.3,92.6,20.7,92.6,20"/>
	<path fill="#262626" d="M20.4,3.1C20.4,3.1,20.4,3,20.4,3.1c-0.1-0.4-0.2-0.8-0.6-1.1c-0.3-0.2-0.6-0.3-0.9-0.3c0,0,0,0,0,0
		c-0.1,0-0.2,0-0.2,0c0,0,0,0,0,0c0,0-0.1,0-0.1,0c-0.1,0-0.1,0-0.2,0C14.7,2,11.8,5,11.8,8.8l0,20.2c0,7.2-6.8,7.3-6.9,7.3H4.8
		c-1.3,0-2.4-0.4-3.1-0.7c0,0-0.1,0-0.1,0c-0.1,0-0.3-0.1-0.4-0.1c-0.7,0-1.2,0.5-1.2,1.1c0,0,0,0,0,0.1c0,0,0,0,0,0
		c0,0.2,0,0.5,0.1,0.7C1.4,41.6,6.9,43,9.5,43c5.9,0,10.9-4.3,10.9-11.4l0-28.4C20.4,3.2,20.4,3.1,20.4,3.1"/>
</g>
</svg>
