<?xml version="1.0" encoding="utf-8"?>
<!-- Generator: Adobe Illustrator 19.1.0, SVG Export Plug-In . SVG Version: 6.00 Build 0)  -->
<svg version="1.1" id="Layer_1" xmlns="http://www.w3.org/2000/svg" xmlns:xlink="http://www.w3.org/1999/xlink" x="0px" y="0px"
	 viewBox="84 -3 203 43" style="enable-background:new 84 -3 203 43;" xml:space="preserve">
<style type="text/css">
	.st0{fill:#FFFFFF;}
</style>
<g>
	<g>
		<path class="st0" d="M224.6,32.7c-3.8,0-6.9-3.1-6.9-6.9s3.1-6.9,6.9-6.9c3.8,0,6.9,3.1,6.9,6.9S228.4,32.7,224.6,32.7
			 M238.3,12.3L238.3,12.3c-0.1,0-0.1,0-0.1-0.1h-0.1l0,0c-0.2-0.1-0.4-0.1-0.6-0.1h-3.9c-1.2,0-2,1-2,1.9c0,0.1,0,0.1,0,0.2l0,0
			l0,0c0,0.3-0.3,0.6-0.6,0.6c-0.2,0-0.3-0.1-0.4-0.2l-0.1-0.1c-1.9-2.3-5.1-2.7-6.3-2.8h-0.3c-8.1,0-14.4,6-14.4,14.2
			s7.1,13.9,14.1,13.9c0.7,0,4.8,0,6.9-2.6l0.1-0.1c0.1-0.1,0.3-0.2,0.4-0.2c0.3,0,0.6,0.3,0.6,0.6l0,0c0,0,0,0.1,0,0.2
			c0,1,0.8,1.9,2,1.9h3.9c0.2,0,0.4,0,0.6-0.1l0,0h0.1h0.1l0,0c0.6-0.3,1.1-0.9,1.2-1.7V14C239.4,13.2,238.9,12.6,238.3,12.3"/>
		<path class="st0" d="M257.5,11.9c-0.9,0-4,0-6.4,2.6l-0.1,0.1c-0.1,0.1-0.3,0.2-0.4,0.2c-0.3,0-0.6-0.3-0.6-0.6l0,0
			c0,0,0-0.1,0-0.2c0-1-0.8-1.9-2-1.9h-3.9c-0.2,0-0.4,0-0.6,0.1l0,0l-0.2,0.1l0,0c-0.7,0.3-1.1,0.9-1.2,1.7c0,0.1,0,0.2,0,0.2v0.4
			v22.5c0,0.1,0,0.4,0,0.5c0,1.1,0.9,2,2,2c0.1,0,3.7,0,3.9,0c1.1,0,2-0.9,2-2c0,0,0-10.8,0-10.9c0-4.9,4.1-7.4,7-7.4
			c0.1,0,0.5,0,0.6,0c1,0,1.8-0.7,2-1.7c0-0.1,0-0.3,0-0.4c0,0,0-3.2,0-3.3c0-1.1-0.9-2-1.9-2C257.6,11.9,257.5,11.9,257.5,11.9"/>
		<path class="st0" d="M195-3c-8.5,0-15.4,6.7-15.4,15.6v25.5l0,0c0,0.4,0.2,0.7,0.4,1c0.1,0.1,0.1,0.1,0.2,0.2c0,0,0.1,0,0.1,0.1
			l0,0c0.2,0.2,0.5,0.3,0.8,0.3l0,0c0.1,0,0.3,0,0.3,0c0.1,0,0.1,0,0.2,0c3.7-0.3,6.5-3.4,6.5-7.1c0,0,0-19.4,0-19.6v-0.5
			c0-3.8,3.1-6.9,6.9-6.9s6.9,3.1,6.9,6.9l0,0c-0.1,1.6-0.8,3.1-1.8,4.2l-0.2,0.2c-1.1,1.1-2.1,1.7-3.5,1.7c-0.2,0-0.3-0.1-0.4-0.2
			c-0.2-0.2-0.1-0.4-0.1-0.4v-2c0-0.1,0-0.2-0.1-0.3c-0.2-0.2-0.5-0.2-0.7,0l-5.3,5.3c-0.3,0.3-0.4,0.7-0.4,1.1s0.1,0.7,0.4,1
			l5.2,5.7l0.1,0.1c0.1,0.1,0.2,0.1,0.3,0.1c0.3,0,0.5-0.2,0.5-0.5v-2.1c0-0.4,0.4-0.6,0.6-0.6h0.2c8.7,0,13.4-5.5,13.7-13.2l0,0
			C210.4,4,203.7-3,195-3"/>
		<path class="st0" d="M281.1,12.2c-2.3,0-4.4,1-5.8,2.8l-4.5,5.8c-0.1,0.1-0.2,0.1-0.3,0.1c-0.3,0-0.5-0.2-0.5-0.5
			c0,0,0-19.5,0-19.6c0-1.1-0.9-2-2-2c-0.1,0-4.6,0-4.6,0c-1.1,0-2,0.9-2,2v36.3c0,0.1,0,0.3,0,0.4c0,1.1,0.9,2,2,2h4.6
			c1.1,0,2-0.9,2-2v-0.3v-7c0-0.3,0.2-0.5,0.5-0.5c0.1,0,0.2,0,0.3,0.1l0.1,0.1l5.3,6.9c1.5,1.9,3.5,2.8,5.8,2.8h3.8
			c1,0,1.5-1.2,1-1.9L278,26.3c-0.2-0.3-0.5-0.8-0.5-1.3s0.3-1,0.5-1.4l7.4-9.6c0.5-0.7,0-1.8-0.9-1.8H281.1z"/>
	</g>
	<path class="st0" d="M133.9,26.7c0-0.3,0-0.6,0-0.9V14.4c0-0.1,0-0.3,0-0.3c0-1.1-0.9-2-2-2h-0.3h-3.9h-0.3c-1.1,0-2,0.9-2,2
		c0,0.1,0,0.3,0,0.3v9.4c0,1.5-0.1,3.5-0.3,5c0,0.2,0,0.3-0.1,0.5v0.2c-0.4,2-2.1,3.4-4.2,3.6c-0.1,0-0.1,0-0.2,0
		c-0.1,0-0.1,0-0.2,0c-2.1-0.1-3.7-1.6-4.2-3.6c0-0.1,0-0.2,0-0.2c0-0.2,0-0.3-0.1-0.5c-0.1-1.5-0.3-3.5-0.3-5v-9.4
		c0-0.1,0-0.3,0-0.3c0-1.1-0.9-2-2-2h-0.3h-3.9h-0.3c-1.1,0-2,0.9-2,2c0,0.1,0,0.3,0,0.3v11.3c0,0.3,0,0.6,0,0.9
		c0,2.7-0.1,6.9,2.7,9.7c2.1,2.2,5.2,3.6,10.5,3.6l0,0c0,0,0,0,0.1,0c0,0,0,0,0.1,0l0,0c5.3,0,8.4-1.5,10.5-3.6
		C134,33.5,133.9,29.1,133.9,26.7"/>
	<path class="st0" d="M157.9,31.4c0.1-0.5,0.1-0.9,0.1-1.4c-0.2-2.6-1.7-5.1-4.2-6.5c-0.2-0.1-0.4-0.2-0.6-0.3
		c-1.1-0.5-2.4-0.8-3.8-1.1c-0.2,0-0.4-0.1-0.6-0.1c-0.9-0.1-2.2-0.3-3-0.9l0,0c-0.2-0.1-0.3-0.2-0.4-0.4c-0.7-0.8-0.5-2.1,0.3-2.8
		c0.1-0.1,0.2-0.2,0.4-0.2l0,0h0.1c0,0,0,0,0.1,0c0.6-0.2,1.1-0.3,1.1-0.3c2.3-0.1,4,0.4,5.2,0.8c0.3,0.1,0.6,0.2,0.9,0.2
		c1,0,1.4-0.7,1.6-1c0,0,0.5-0.8,1.1-2.1l0.1-0.2c0.4-0.7,0.2-1.3,0.1-1.7c-0.3-0.6-0.8-1-1.2-1.1c-2.1-0.6-4.5-1.1-6.8-1.1
		c-6.3-0.1-11.7,3-11.7,9.1c0,3.8,2.8,6.8,5.9,7.7c1.7,0.5,3.5,0.8,4.3,0.9c0.4,0.1,0.7,0.1,1,0.2c0.1,0,0.1,0,0.2,0.1
		c0.3,0.1,0.7,0.4,0.9,0.7c0.4,0.5,0.5,1,0.5,1.6s-0.3,1.3-0.8,1.7c-0.6,0.4-1.5,0.5-1.8,0.6c-2.9,0-5.6-0.9-7.6-1.8
		c-0.2-0.1-0.5-0.2-0.8-0.2c-0.4,0-1.1,0.2-1.4,0.9c-0.4,0.7-0.9,1.7-1.3,2.3c-0.3,0.5-0.3,1.1-0.2,1.6c0.2,0.6,0.7,1.1,1.1,1.3
		c2.6,1.2,5.4,2.2,8.7,2.4c0.3,0,0.8,0,0.8,0c3.4,0.1,6.9-1.2,9.1-3.2C156.7,35.5,157.7,33.6,157.9,31.4"/>
	<path class="st0" d="M176.6,17v-2.7v-0.1c0-1.1-0.9-2-2-2c0,0-0.1,0-0.2,0c-0.2,0-1.9,0-1.9,0c-0.9,0-1.6-0.7-1.6-1.6V9.1V6
		c0-0.1,0-0.3,0-0.4c0-1.1-0.9-2-2-2c-0.1,0-4.5,0-4.6,0c-1.1,0-2,0.9-2,2c0,0.1,0,0.3,0,0.3v4.3v0.3c0,0.9-0.7,1.6-1.5,1.6h-0.1
		c-0.4,0-0.9,0.1-1.3,0.4c-0.5,0.4-0.8,1-0.8,1.6v2.6v0.4c0,0.4,0.1,0.9,0.4,1.3c0.4,0.5,1,0.7,1.5,0.8l0,0c0.9,0,1.6,0.7,1.6,1.6
		v16.4c0,1.6,0.8,2.4,2.4,2.4h3.9c1.9,0,2.4-1.3,2.4-2.4V22.4v-1.6c0-0.9,0.7-1.6,1.6-1.6h2c0.4,0,0.9-0.1,1.3-0.4
		C176.4,18.3,176.6,17.7,176.6,17"/>
	<path class="st0" d="M104.4,0.1C104.4,0.1,104.4,0,104.4,0.1c-0.1-0.4-0.2-0.8-0.6-1.1c-0.3-0.2-0.6-0.3-0.9-0.3l0,0
		c-0.1,0-0.2,0-0.2,0l0,0h-0.1c-0.1,0-0.1,0-0.2,0C98.7-1,95.8,2,95.8,5.8V26c0,7.2-6.8,7.3-6.9,7.3h-0.1c-1.3,0-2.4-0.4-3.1-0.7
		h-0.1c-0.1,0-0.3-0.1-0.4-0.1c-0.7,0-1.2,0.5-1.2,1.1c0,0,0,0,0,0.1l0,0c0,0.2,0,0.5,0.1,0.7c1.3,4.2,6.8,5.6,9.4,5.6
		c5.9,0,10.9-4.3,10.9-11.4V0.2C104.4,0.2,104.4,0.1,104.4,0.1"/>
</g>
</svg>
